PathFileType	4	(X/Y/Z)	./resultDataOpenSim/trcMotMarkerGrf/sub09/qtm-03-08.trc
DataRate	CameraRate	NumFrames	NumMarkers	Units	OrigDataRate	OrigDataStartFrame	OrigNumFrames
250.000000	250.000000	11	24	m	250.000000	364	485
Frame#	Time	L.Toe.Tip			R.Toe.Tip			L.Ankle.Lat			R.Ankle.Lat			L.Ankle.Med			R.Ankle.Med			L.Heel			R.Heel			L.Knee.Lat			R.Knee.Lat			L.Knee.Med			R.Knee.Med			L.Thigh.Upper			R.Thigh.Upper			L.ASIS			R.ASIS			V.Sacral			L.Acromium			R.Acromium			C7			L.Elbow			R.Elbow			L.Wrist.Lat			R.Wrist.Lat
		X1	Y1	Z1	X2	Y2	Z2	X3	Y3	Z3	X4	Y4	Z4	X5	Y5	Z5	X6	Y6	Z6	X7	Y7	Z7	X8	Y8	Z8	X9	Y9	Z9	X10	Y10	Z10	X11	Y11	Z11	X12	Y12	Z12	X13	Y13	Z13	X14	Y14	Z14	X15	Y15	Z15	X16	Y16	Z16	X17	Y17	Z17	X18	Y18	Z18	X19	Y19	Z19	X20	Y20	Z20	X21	Y21	Z21	X22	Y22	Z22	X23	Y23	Z23	X24	Y24	Z24

364	1.452	0.75029807	0.12919142	0.0051530843	1.0398251	0.039769804	0.12765573	0.69047016	0.26978221	-0.034448936	0.89281314	0.055938587	0.16793574	0.71547102	0.26116788	0.060631088	0.90136411	0.096060373	0.077209017	0.61786494	0.30228706	0.010270178	0.82185455	0.037578507	0.12097371	1.0280171	0.49393493	-0.058529213	0.98697338	0.50393003	0.22648148	1.0333181	0.48402917	0.070149444	0.96731191	0.49299831	0.10238181	0.88595558	0.88084619	-0.081481042	0.88833605	0.90229886	0.2887754	0.9608326	0.96915663	-0.024983464	0.97086529	0.98477547	0.21228857	0.79746706	1.0343696	0.093859163	0.96006072	1.4313923	-0.08007819	0.93165746	1.4444167	0.24983032	0.87513377	1.4824944	0.080837007	0.84278451	1.0767611	-0.12771341	0.78740472	1.1107832	0.3444521	1.0013096	0.86458998	-0.14449581	0.9499449	0.88766447	0.37056833
365	1.456	0.76779368	0.12759534	0.00459135	1.0399111	0.039759922	0.12770712	0.70400616	0.26658897	-0.033541249	0.89267277	0.056167031	0.16780396	0.72921712	0.25796475	0.061549429	0.90168942	0.096266811	0.077068601	0.63038236	0.2967647	0.011813746	0.82181094	0.037901653	0.12067865	1.0376017	0.49687906	-0.057834172	0.98805989	0.5039899	0.22668593	1.0442044	0.4872134	0.070667715	0.96834417	0.49317523	0.10216471	0.89207687	0.88254416	-0.081588938	0.89304588	0.90336562	0.28864575	0.96641131	0.9708075	-0.024817941	0.97583672	0.98586242	0.21253016	0.80238375	1.0356082	0.093740755	0.96478318	1.4326138	-0.080219288	0.93682545	1.4458577	0.24972629	0.88014814	1.4837822	0.080822935	0.84629271	1.0785265	-0.12745604	0.79304579	1.1118788	0.34483894	1.002994	0.86521585	-0.14559084	0.9575652	0.88984027	0.369647
366	1.46	0.78543203	0.12590952	0.0040438516	1.0399711	0.039738741	0.12776686	0.71765825	0.26316152	-0.032657299	0.89261239	0.05642031	0.16765984	0.74298055	0.25452057	0.06249217	0.90198923	0.096488379	0.076938917	0.64309073	0.2909907	0.013250388	0.82168093	0.038222809	0.12042376	1.0470789	0.49979261	-0.057177643	0.98922232	0.50408368	0.2269411	1.0543878	0.49031594	0.070968549	0.96935077	0.49335325	0.10196837	0.89803207	0.88418102	-0.081753911	0.89777375	0.90442273	0.28851644	0.97192869	0.97240426	-0.02463085	0.98079171	0.98689557	0.21275017	0.80727857	1.0368243	0.093649941	0.96953088	1.4337824	-0.080351663	0.94197921	1.4472522	0.24962531	0.88516286	1.4850256	0.080803278	0.84980229	1.0802483	-0.12721676	0.79869557	1.1128832	0.34510484	1.0047055	0.86582521	-0.14668563	0.96514071	0.89196741	0.36873306
367	1.464	0.80308511	0.12410048	0.0036098719	1.0400118	0.039707124	0.12783293	0.73142692	0.25950099	-0.031813458	0.89263469	0.056687846	0.1675094	0.75694025	0.25085718	0.063374313	0.90224602	0.096727206	0.076832404	0.65602119	0.28497631	0.014566732	0.8216385	0.038574435	0.12014959	1.0564431	0.50262487	-0.05652111	0.99043776	0.50418514	0.22719288	1.0632806	0.49334607	0.071052693	0.97038884	0.49351329	0.10186248	0.90393956	0.88576258	-0.081917727	0.90237999	0.90543769	0.28838623	0.97739654	0.97394278	-0.024425722	0.98573365	0.98787803	0.2129557	0.81216071	1.03801	0.093586963	0.97430172	1.4348966	-0.080476273	0.94711873	1.4485955	0.24952569	0.89017694	1.4862324	0.080772661	0.8533267	1.0819283	-0.12700605	0.80437122	1.1138174	0.34532216	1.0064453	0.86640702	-0.14778002	0.97267961	0.8940459	0.36782164
368	1.468	0.82069003	0.12214962	0.0033440933	1.040054	0.039677723	0.12789928	0.74532106	0.25560688	-0.031011823	0.8927064	0.056950373	0.167359	0.77133264	0.24702712	0.064088767	0.90245503	0.096988577	0.076759265	0.6691576	0.2787113	0.015816727	0.82182177	0.038984554	0.11980633	1.0656841	0.5053253	-0.055867518	0.99171156	0.50428209	0.22745385	1.0711438	0.49630733	0.071007869	0.97150843	0.49364551	0.10183937	0.90997979	0.88729158	-0.081995411	0.9067202	0.90633856	0.28824372	0.98289064	0.97541926	-0.024239464	0.99066539	0.98881705	0.21315509	0.81700389	1.0391375	0.093523666	0.97909108	1.4359551	-0.08059622	0.95224265	1.4498846	0.24942441	0.8951889	1.4874018	0.080731271	0.85687961	1.083564	-0.12683626	0.81007215	1.1146915	0.34550903	1.0082108	0.86696143	-0.14887404	0.98020349	0.89608147	0.36690494
369	1.472	0.83827416	0.12007845	0.0032332304	1.0401192	0.039663997	0.12796085	0.7593384	0.25147509	-0.030228734	0.89280388	0.057195329	0.16720415	0.78625813	0.24307122	0.064606897	0.90265569	0.097283359	0.076704125	0.68248685	0.27220605	0.017033759	0.82218705	0.039421867	0.11943104	1.0748087	0.50790298	-0.055257126	0.99301338	0.50438282	0.22773165	1.0788226	0.49919763	0.070990874	0.97273549	0.49375524	0.10185958	0.91625852	0.88876692	-0.081938822	0.91075402	0.90706544	0.28808159	0.98851327	0.97683253	-0.024121326	0.99558389	0.98971991	0.21335055	0.8218112	1.0401891	0.093434246	0.98389388	1.4369569	-0.080717407	0.95735132	1.4511183	0.24932068	0.90020095	1.4885251	0.080685135	0.8604645	1.0851502	-0.12671037	0.81578811	1.1155096	0.34566489	1.0099967	0.86749757	-0.14996886	0.98773139	0.8980825	0.36597974
370	1.476	0.85589748	0.11793666	0.0032455694	1.0402126	0.039664894	0.12801928	0.77347292	0.24710132	-0.029439476	0.89292384	0.057425935	0.1670328	0.80161902	0.23900504	0.064994235	0.90293622	0.097617072	0.076621992	0.69602201	0.26549102	0.018205766	0.82262886	0.03980384	0.11911375	1.0838005	0.51040297	-0.054710794	0.99427135	0.50449308	0.22799907	1.087068	0.50201946	0.07114112	0.97401657	0.49387933	0.10189945	0.92258851	0.89018374	-0.081838809	0.91458131	0.90763502	0.28791227	0.99429824	0.97818608	-0.0240852	1.0004845	0.99058843	0.21353723	0.82669478	1.0411606	0.093298364	0.98870605	1.4379022	-0.080840801	0.96244412	1.4522961	0.24921557	0.90521724	1.4895899	0.080639818	0.86407649	1.0866784	-0.12661912	0.82150125	1.1162704	0.34579269	1.0118054	0.86802048	-0.15105964	0.9952629	0.90005212	0.3650502
371	1.48	0.87363032	0.11576791	0.0033559179	1.0403216	0.039665053	0.12807905	0.78773845	0.24249707	-0.028648282	0.89306726	0.057653851	0.16683074	0.8171525	0.23483683	0.065361061	0.90335083	0.097982124	0.076496754	0.70980618	0.25859933	0.019296591	0.82310879	0.040089656	0.11889074	1.0926195	0.51284057	-0.054207293	0.99542956	0.50460582	0.22824524	1.0961565	0.50477166	0.071506955	0.97524005	0.49407868	0.10195492	0.92853052	0.89153883	-0.081906267	0.91839281	0.90814013	0.28775784	1.0001249	0.97948418	-0.024080089	1.0053706	0.99141644	0.21371	0.83189349	1.0420396	0.093063006	0.99352637	1.4387927	-0.080962124	0.96752176	1.4534173	0.24911197	0.91023807	1.4905876	0.080591485	0.86770778	1.0881406	-0.12655059	0.82719538	1.1169705	0.34590373	1.0136502	0.86852516	-0.15213526	1.0027762	0.90198189	0.36412296
372	1.484	0.89154238	0.11357198	0.0035454849	1.0404253	0.039646524	0.12813941	0.80215239	0.23769497	-0.027876566	0.89322051	0.05788685	0.16658585	0.83256086	0.23057099	0.065811094	0.90386875	0.098376811	0.07637589	0.72387558	0.25156023	0.020278699	0.82358437	0.040334323	0.11868756	1.1012367	0.51519464	-0.053724415	0.99646819	0.50471698	0.22849573	1.1059448	0.50744011	0.072049912	0.97637903	0.49436818	0.10203567	0.93393003	0.89282869	-0.082213898	0.92235994	0.90867555	0.28763319	1.0057954	0.98072477	-0.024031012	1.0102537	0.99219672	0.21387102	0.83763616	1.0428049	0.0926577	0.99835533	1.4396292	-0.081080781	0.97258986	1.4544818	0.24901394	0.91525907	1.4915234	0.080530687	0.8713533	1.0895374	-0.1264981	0.83286856	1.1176066	0.34600956	1.0155385	0.86900071	-0.15319379	1.0102462	0.90385705	0.36320188
373	1.488	0.90966626	0.11132805	0.0038056971	1.0405167	0.039606684	0.12819138	0.81671622	0.23272826	-0.027136829	0.89335934	0.058127144	0.16629678	0.84774989	0.22620398	0.066375358	0.90444877	0.098810219	0.076283236	0.73819083	0.24440031	0.021182	0.82397085	0.040621328	0.11838396	1.1096331	0.51744323	-0.053272234	0.99737506	0.50483087	0.22875944	1.1160963	0.51000014	0.072690106	0.9775797	0.49465573	0.10216289	0.93912635	0.89404354	-0.082592407	0.92651617	0.9092668	0.28753955	1.0112166	0.98189983	-0.023906271	1.0151424	0.9929285	0.21402666	0.84385863	1.0434597	0.092093794	1.0031925	1.4404095	-0.081198631	0.97765241	1.4554894	0.24892192	0.92027475	1.4924086	0.080457007	0.87501915	1.0908811	-0.12646066	0.83853018	1.118176	0.34611478	1.0174621	0.86943728	-0.15424978	1.0176642	0.90566884	0.36228828
374	1.492	0.92797436	0.10904731	0.0041295009	1.0406243	0.039571269	0.12821787	0.83143571	0.22760941	-0.026428733	0.89347183	0.058378489	0.16597698	0.86284817	0.2217329	0.067010424	0.90501515	0.099249137	0.076135693	0.75265743	0.23713927	0.022079936	0.82422915	0.040974736	0.11792334	1.117801	0.51956955	-0.052875813	0.99815134	0.50495252	0.22901667	1.1262354	0.51242177	0.073338071	0.97899115	0.49482251	0.10235141	0.94443331	0.89517222	-0.082875215	0.93077507	0.90988029	0.28746838	1.0164528	0.98300499	-0.023728189	1.0200359	0.99361657	0.21417894	0.85013016	1.0440558	0.091506478	1.0080376	1.4411311	-0.081314218	0.98270524	1.4564385	0.24883305	0.92528164	1.4932422	0.080380581	0.87872671	1.0921829	-0.12644375	0.84418813	1.1186799	0.34621738	1.0194118	0.86983076	-0.15531619	1.0250353	0.90741812	0.36138347
